<?xml version="1.0" encoding="UTF-8" standalone="no"?>
<svg width="512px" height="512px" viewBox="0 0 512 512" version="1.1" xmlns="http://www.w3.org/2000/svg" xmlns:xlink="http://www.w3.org/1999/xlink" xmlns:sketch="http://www.bohemiancoding.com/sketch/ns">
    <defs></defs>
    <g id="Page-1" stroke="none" stroke-width="1" fill="none" fill-rule="evenodd" sketch:type="MSPage">
        <g id="rocket_orig" sketch:type="MSLayerGroup" transform="translate(93.000000, 49.000000)" fill="#000000">
            <path d="M83.8241379,231.268674 C84.1010345,229.340764 83.6277931,227.584 82.4396552,226.043685 C81.2414483,224.508404 79.6606207,223.617438 77.7223448,223.406022 C49.7507586,220.300225 34.5315172,238.195056 27.8507586,261.908854 C27.4127586,261.762876 27.0251034,261.626966 26.6777241,261.511191 C22.3581379,260.066517 19.699931,255.933843 20.1631034,251.403506 C22.494069,228.535371 29.1194483,193.233978 50.1031724,178.424809 C60.4691724,171.105798 79.5448276,164.994876 97.5431034,158.808449 C100.236552,157.882247 102.179862,155.99964 103.186759,153.341843 C132.603241,75.7623371 189.638897,22.2187865 279.076483,-1.05204494 C282.358966,-1.90777528 285.586069,0.568808989 286.245586,3.56386517 C304.676828,86.7307865 271.962759,165.996584 215.123448,224.739955 C213.185172,226.753438 212.299103,229.260225 212.565931,232.053933 C214.403517,251.247461 216.835172,271.553438 214.423655,284.198112 C209.630828,309.43209 180.239517,330.075326 160.388552,341.662921 C156.451586,343.958292 151.59331,343.248539 148.487034,339.916225 C148.23531,339.644404 147.958414,339.352449 147.641241,339.010157 C166.470207,323.098607 176.46869,301.826157 162.024759,277.649258 C161.032966,275.983101 159.578,274.915955 157.700138,274.457888 C155.822276,273.99982 154.035034,274.286742 152.398828,275.318652 C143.568345,280.825528 134.823448,286.120989 126.048345,291.78391 C124.381931,292.861124 122.549379,293.163146 120.621172,292.695011 C104.259103,288.642876 90.0467586,281.96818 80.7077931,269.363775 C79.5851034,267.858697 79.1471034,266.172404 79.4038621,264.309933 C80.8890345,253.306247 82.2735172,242.267326 83.8241379,231.268674 L83.8241379,231.268674 L83.8241379,231.268674 Z M118.914483,301.056 C118.330483,301.000629 117.746483,300.910022 117.157448,300.759011 C114.076345,299.998921 111.070759,299.143191 108.14069,298.171685 L57.5995172,389.191191 L58.7322759,389.880809 L118.914483,301.056 L118.914483,301.056 Z M82.1778621,283.820584 C79.5951724,281.47991 77.2188966,278.887551 75.0742069,275.988135 C74.9835862,275.87236 74.898,275.751551 74.8174483,275.635775 L23.4153793,368.195596 L24.5431034,368.885213 L82.1778621,283.820584 L82.1778621,283.820584 Z M87.3382069,292.629573 C58.4302069,342.971685 29.5121379,393.318831 0.599103448,443.665978 L1.72682759,444.365663 L97.3014483,298.750562 C93.9786897,296.706876 90.655931,294.668225 87.3382069,292.629573 L87.3382069,292.629573 L87.3382069,292.629573 Z M229.955034,76.0190562 C212.027241,64.4817978 188.153724,69.6564494 176.61469,87.5764494 C165.08069,105.496449 170.251103,129.37636 188.178897,140.908584 C206.101655,152.440809 229.985241,147.266157 241.519241,129.351191 C253.053241,111.431191 247.877793,87.5563146 229.955034,76.0190562 L229.955034,76.0190562 L229.955034,76.0190562 Z M220.319034,90.9943371 C215.501034,87.8885393 209.867448,87.0378427 204.661793,88.1603596 C199.466207,89.2879101 194.698552,92.3937079 191.59731,97.2109663 C188.491034,102.033258 187.640207,107.665978 188.762897,112.865798 C189.885586,118.065618 192.991862,122.827506 197.809862,125.92827 C202.637931,129.034067 208.271517,129.889798 213.472138,128.762247 C218.66269,127.634697 223.435379,124.528899 226.531586,119.71164 C229.637862,114.889348 230.493724,109.256629 229.371034,104.056809 C228.24331,98.8670562 225.137034,94.0951011 220.319034,90.9943371 L220.319034,90.9943371 L220.319034,90.9943371 Z M203.035655,80.6349663 C195.916897,82.1752809 189.382138,86.4388315 185.122966,93.0581573 C180.863793,99.6674157 179.685724,107.379056 181.23131,114.491685 C182.776897,121.614382 187.041103,128.143101 193.661448,132.406652 C200.271724,136.660135 207.979517,137.838022 215.098276,136.292674 C222.217034,134.747326 228.756828,130.483775 233.016,123.869483 C237.275172,117.260225 238.443172,109.553618 236.897586,102.435955 C235.352,95.3132584 231.087793,88.7845393 224.477517,84.5209888 C217.857172,80.2675056 210.159448,79.0946517 203.035655,80.6349663 L203.035655,80.6349663 Z" id="Shape" sketch:type="MSShapeGroup"></path>
        </g>
    </g>
</svg>