<?xml version="1.0" encoding="UTF-8" standalone="no"?>
<svg width="512px" height="512px" viewBox="0 0 512 512" version="1.1" xmlns="http://www.w3.org/2000/svg" xmlns:xlink="http://www.w3.org/1999/xlink" xmlns:sketch="http://www.bohemiancoding.com/sketch/ns">
    <defs></defs>
    <g id="Page-1" stroke="none" stroke-width="1" fill="none" fill-rule="evenodd" sketch:type="MSPage">
        <g id="turtle" sketch:type="MSLayerGroup" transform="translate(32.000000, 124.000000)" fill="#000000">
            <g id="Group" sketch:type="MSShapeGroup">
                <path d="M285.090909,58.9642857 C294.141414,49.8928571 339.393939,0 389.171717,0 C448,4.53571429 497.777778,131.535714 343.919192,108.857143 C330.343434,104.321429 321.292929,108.857143 316.767677,108.857143 C325.818182,136.071429 321.292929,163.285714 321.292929,172.357143 C321.292929,176.892857 312.242424,185.964286 294.141414,195.035714 C294.141414,208.642857 298.666667,235.857143 289.616162,244.928571 C276.040404,258.535714 239.838384,258.535714 221.737374,244.928571 C217.212121,240.392857 212.686869,226.785714 217.212121,213.178571 L190.060606,213.178571 L153.858586,213.178571 C153.858586,226.785714 153.858586,240.392857 149.333333,244.928571 C135.757576,258.535714 99.5555556,258.535714 81.4545455,244.928571 C72.4040404,235.857143 72.4040404,217.714286 76.9292929,199.571429 C72.4040404,199.571429 63.3535354,195.035714 58.8282828,190.5 C36.2020202,199.571429 4.52525253,204.107143 0,199.571429 C0,185.964286 27.1515152,181.428571 49.7777778,163.285714 C45.2525253,117.928571 31.6767677,18.1428571 176.484848,22.6785714 C226.262626,22.6785714 262.464646,40.8214286 285.090909,58.9642857 L285.090909,58.9642857 Z" id="Shape"></path>
            </g>
        </g>
    </g>
</svg>